<svg width="23" height="23" viewBox="0 0 23 23" fill="none" xmlns="http://www.w3.org/2000/svg">
<path fill-rule="evenodd" clip-rule="evenodd" d="M14.375 3.83332V2.87499C14.375 2.34599 14.8043 1.91666 15.3333 1.91666C15.8623 1.91666 16.2917 2.34599 16.2917 2.87499V3.83332C18.4086 3.83332 20.125 5.5497 20.125 7.66666V17.25C20.125 19.3669 18.4086 21.0833 16.2917 21.0833C13.5508 21.0833 9.44821 21.0833 6.70833 21.0833C4.59137 21.0833 2.875 19.3669 2.875 17.25V7.66666C2.875 5.5497 4.59137 3.83332 6.70833 3.83332V2.87499C6.70833 2.34599 7.13767 1.91666 7.66667 1.91666C8.19567 1.91666 8.625 2.34599 8.625 2.87499V3.83332H14.375ZM18.2083 11.5H4.79167V17.25C4.79167 18.308 5.64937 19.1667 6.70833 19.1667H16.2917C17.3497 19.1667 18.2083 18.308 18.2083 17.25V11.5ZM16.2917 5.74999V6.70832C16.2917 7.23732 15.8623 7.66666 15.3333 7.66666C14.8043 7.66666 14.375 7.23732 14.375 6.70832V5.74999H8.625V6.70832C8.625 7.23732 8.19567 7.66666 7.66667 7.66666C7.13767 7.66666 6.70833 7.23732 6.70833 6.70832V5.74999C5.64937 5.74999 4.79167 6.6077 4.79167 7.66666V9.58332H18.2083V7.66666C18.2083 6.6077 17.3497 5.74999 16.2917 5.74999Z" fill="#6572E1"/>
</svg>
