<svg width="17" height="17" viewBox="0 0 17 17" fill="none" xmlns="http://www.w3.org/2000/svg">
<path d="M8.5 1.0625C7.02901 1.0625 5.59104 1.4987 4.36795 2.31594C3.14486 3.13319 2.19158 4.29477 1.62865 5.65379C1.06572 7.01282 0.918435 8.50825 1.20541 9.95098C1.49239 11.3937 2.20074 12.719 3.2409 13.7591C4.28105 14.7993 5.60629 15.5076 7.04902 15.7946C8.49175 16.0816 9.98719 15.9343 11.3462 15.3714C12.7052 14.8084 13.8668 13.8551 14.6841 12.6321C15.5013 11.409 15.9375 9.971 15.9375 8.5C15.9354 6.5281 15.1511 4.63757 13.7568 3.24322C12.3624 1.84888 10.4719 1.06461 8.5 1.0625ZM9.03125 14.8479V13.8125C9.03125 13.6716 8.97528 13.5365 8.87565 13.4368C8.77603 13.3372 8.6409 13.2812 8.5 13.2812C8.35911 13.2812 8.22398 13.3372 8.12435 13.4368C8.02472 13.5365 7.96875 13.6716 7.96875 13.8125V14.8479C6.46869 14.7207 5.06194 14.0671 3.99743 13.0026C2.93292 11.9381 2.27926 10.5313 2.1521 9.03125H3.1875C3.3284 9.03125 3.46353 8.97528 3.56315 8.87565C3.66278 8.77602 3.71875 8.6409 3.71875 8.5C3.71875 8.3591 3.66278 8.22398 3.56315 8.12435C3.46353 8.02472 3.3284 7.96875 3.1875 7.96875H2.1521C2.27926 6.46868 2.93292 5.06194 3.99743 3.99743C5.06194 2.93292 6.46869 2.27925 7.96875 2.15209V3.1875C7.96875 3.3284 8.02472 3.46352 8.12435 3.56315C8.22398 3.66278 8.35911 3.71875 8.5 3.71875C8.6409 3.71875 8.77603 3.66278 8.87565 3.56315C8.97528 3.46352 9.03125 3.3284 9.03125 3.1875V2.15209C10.5313 2.27925 11.9381 2.93292 13.0026 3.99743C14.0671 5.06194 14.7207 6.46868 14.8479 7.96875H13.8125C13.6716 7.96875 13.5365 8.02472 13.4369 8.12435C13.3372 8.22398 13.2813 8.3591 13.2813 8.5C13.2813 8.6409 13.3372 8.77602 13.4369 8.87565C13.5365 8.97528 13.6716 9.03125 13.8125 9.03125H14.8479C14.7207 10.5313 14.0671 11.9381 13.0026 13.0026C11.9381 14.0671 10.5313 14.7207 9.03125 14.8479ZM11.0006 10.2494C11.0513 10.2984 11.0918 10.357 11.1196 10.4218C11.1475 10.4867 11.1621 10.5564 11.1628 10.6269C11.1634 10.6975 11.1499 10.7674 11.1232 10.8327C11.0965 10.898 11.0571 10.9573 11.0072 11.0072C10.9573 11.0571 10.898 11.0965 10.8327 11.1232C10.7674 11.1499 10.6975 11.1634 10.6269 11.1628C10.5564 11.1621 10.4867 11.1475 10.4219 11.1196C10.357 11.0918 10.2984 11.0513 10.2494 11.0006L8.772 9.52319C8.61488 9.56748 8.44958 9.57452 8.28926 9.54374C8.12894 9.51296 7.978 9.44522 7.84845 9.34588C7.71889 9.24655 7.61429 9.11837 7.54295 8.97153C7.47162 8.82469 7.43551 8.66324 7.4375 8.5C7.43802 8.31424 7.48738 8.13189 7.58063 7.97123C7.67387 7.81057 7.80772 7.67726 7.96875 7.58466V5.3125C7.96875 5.1716 8.02472 5.03648 8.12435 4.93685C8.22398 4.83722 8.35911 4.78125 8.5 4.78125C8.6409 4.78125 8.77603 4.83722 8.87565 4.93685C8.97528 5.03648 9.03125 5.1716 9.03125 5.3125V7.58466C9.19229 7.67726 9.32614 7.81057 9.41938 7.97123C9.51262 8.13189 9.56198 8.31424 9.5625 8.5C9.56113 8.59198 9.54792 8.6834 9.52319 8.772L11.0006 10.2494Z" fill="#56647E" fill-opacity="0.45"/>
</svg>
