<svg width="17" height="17" viewBox="0 0 17 17" fill="none" xmlns="http://www.w3.org/2000/svg">
<path d="M8.50034 1.41666C7.09937 1.41666 5.72988 1.83209 4.56504 2.61041C3.40019 3.38874 2.4923 4.49501 1.95618 5.78932C1.42006 7.08363 1.27979 8.50786 1.5531 9.88186C1.82641 11.2559 2.50103 12.5181 3.49166 13.5086C4.48229 14.4993 5.7444 15.1739 7.11844 15.4472C8.49249 15.7205 9.91668 15.5803 11.211 15.0441C12.5053 14.508 13.6116 13.6001 14.3899 12.4353C15.1682 11.2704 15.5837 9.90094 15.5837 8.5C15.5837 7.5698 15.4004 6.6487 15.0445 5.78932C14.6885 4.92993 14.1667 4.14906 13.509 3.49133C12.8513 2.83357 12.0704 2.31181 11.211 1.95584C10.3516 1.59987 9.43051 1.41666 8.50034 1.41666ZM8.50034 14.1666C7.37956 14.1666 6.28398 13.8343 5.35211 13.2117C4.4202 12.589 3.6939 11.704 3.26501 10.6685C2.83612 9.63309 2.7239 8.49371 2.94255 7.39449C3.1612 6.29524 3.7009 5.28554 4.49341 4.49303C5.28588 3.70056 6.29558 3.16086 7.39483 2.94221C8.49405 2.72356 9.63342 2.83578 10.6689 3.26467C11.7043 3.69356 12.5893 4.41987 13.212 5.35177C13.8347 6.28364 14.167 7.37923 14.167 8.5C14.167 10.0029 13.57 11.4442 12.5073 12.5069C11.4446 13.5696 10.0032 14.1666 8.50034 14.1666ZM9.98784 6.82125L9.20866 7.27457V4.95832C9.20866 4.77047 9.13403 4.59031 9.00119 4.45747C8.86836 4.32463 8.68819 4.25 8.50034 4.25C8.31246 4.25 8.13229 4.32463 7.99945 4.45747C7.86661 4.59031 7.79198 4.77047 7.79198 4.95832V8.5V8.5425C7.78865 8.58966 7.78865 8.63699 7.79198 8.68415C7.80297 8.72767 7.81718 8.77027 7.83448 8.81165V8.85415C7.86831 8.9044 7.90622 8.95179 7.94784 8.99582C8.00506 9.05257 8.07231 9.0982 8.14616 9.1304H8.20284C8.29508 9.17786 8.39664 9.20445 8.50034 9.20832C8.58289 9.20594 8.66439 9.18918 8.74116 9.15875H8.80491H8.85448L10.6962 8.09625C10.8596 8.00231 10.979 7.8473 11.0282 7.6653C11.0773 7.48333 11.0522 7.28926 10.9582 7.12582C10.8643 6.96239 10.7093 6.84294 10.5273 6.79381C10.3453 6.74465 10.1513 6.76981 9.98784 6.86375V6.82125Z" fill="#6572E1"/>
</svg>
