<svg width="23" height="23" viewBox="0 0 23 23" fill="none" xmlns="http://www.w3.org/2000/svg">
<path d="M12.9999 11.5055L17.2591 7.24622C17.4613 7.04442 17.575 6.77062 17.5753 6.48498C17.5755 6.19938 17.4623 5.92535 17.2605 5.7232C17.0587 5.52104 16.7849 5.40734 16.4993 5.40711C16.2137 5.40685 15.9396 5.52005 15.7375 5.72185L11.4782 9.98111L7.21895 5.72185C7.01684 5.51969 6.74268 5.40613 6.45677 5.40613C6.1709 5.40613 5.89674 5.51969 5.69458 5.72185C5.49247 5.92401 5.37891 6.19817 5.37891 6.48403C5.37891 6.7699 5.49247 7.04406 5.69458 7.24622L9.95384 11.5055L5.69458 15.7647C5.49247 15.9669 5.37891 16.2411 5.37891 16.5269C5.37891 16.8128 5.49247 17.0869 5.69458 17.2891C5.89674 17.4913 6.1709 17.6048 6.45677 17.6048C6.74268 17.6048 7.01684 17.4913 7.21895 17.2891L11.4782 13.0298L15.7375 17.2891C15.9396 17.4913 16.2138 17.6048 16.4997 17.6048C16.7856 17.6048 17.0597 17.4913 17.2618 17.2891C17.464 17.0869 17.5776 16.8128 17.5776 16.5269C17.5776 16.2411 17.464 15.9669 17.2618 15.7647L12.9999 11.5055Z" fill="#56647E" fill-opacity="0.45"/>
</svg>
