<svg width="11" height="11" viewBox="0 0 11 11" fill="none" xmlns="http://www.w3.org/2000/svg">
<path fill-rule="evenodd" clip-rule="evenodd" d="M8.70835 8.0763C8.70835 7.77242 8.58781 7.48092 8.37285 7.26642C8.28073 7.1743 8.16844 7.06201 8.06027 6.95384C7.71652 6.61009 7.24994 6.41667 6.76365 6.41667C6.07569 6.41667 4.92435 6.41667 4.2364 6.41667C3.7501 6.41667 3.28352 6.61009 2.93977 6.95384C2.8316 7.06201 2.71931 7.1743 2.62719 7.26642C2.41223 7.48092 2.29169 7.77242 2.29169 8.0763V8.9375C2.29169 9.24138 2.41223 9.53288 2.62719 9.74784C2.84215 9.9628 3.13365 10.0833 3.43752 10.0833H7.56252C7.8664 10.0833 8.1579 9.9628 8.37285 9.74784C8.58781 9.53288 8.70835 9.24138 8.70835 8.9375C8.70835 8.63913 8.70835 8.30638 8.70835 8.0763ZM7.79169 8.0763V8.9375C7.79169 8.99846 7.7674 9.05667 7.72477 9.09976C7.68169 9.14238 7.62348 9.16667 7.56252 9.16667C6.50606 9.16667 4.49398 9.16667 3.43752 9.16667C3.37656 9.16667 3.31835 9.14238 3.27527 9.09976C3.23265 9.05667 3.20835 8.99846 3.20835 8.9375C3.20835 8.63913 3.20835 8.30638 3.20835 8.0763C3.20835 8.0158 3.23265 7.95759 3.27527 7.91451C3.3674 7.82238 3.47969 7.71009 3.58785 7.60192C3.75973 7.43005 3.99302 7.33334 4.2364 7.33334H6.76365C7.00702 7.33334 7.24031 7.43005 7.41219 7.60192L7.72477 7.91451C7.7674 7.95759 7.79169 8.0158 7.79169 8.0763ZM7.33335 2.75C7.33335 1.73754 6.51248 0.916672 5.50002 0.916672C4.48756 0.916672 3.66669 1.73754 3.66669 2.75V3.66667C3.66669 4.67913 4.48756 5.5 5.50002 5.5C6.51248 5.5 7.33335 4.67913 7.33335 3.66667V2.75ZM5.50002 1.83334C4.99356 1.83334 4.58335 2.244 4.58335 2.75V3.66667C4.58335 4.17313 4.99356 4.58334 5.50002 4.58334C6.00648 4.58334 6.41669 4.17313 6.41669 3.66667V2.75C6.41669 2.244 6.00648 1.83334 5.50002 1.83334Z" fill="#6572E1"/>
</svg>
