<svg width="17" height="17" viewBox="0 0 17 17" fill="none" xmlns="http://www.w3.org/2000/svg">
<g clip-path="url(#clip0_53_183)">
<path d="M13.9685 14.9647C12.4942 16.2098 10.5818 17 8.49991 17C5.40205 17 2.68268 15.2934 1.2085 12.8031L1.7604 10.259L4.20674 9.80489C4.77451 11.6377 6.48776 12.9824 8.49991 12.9824C9.47604 12.9824 10.3825 12.6736 11.1296 12.1258L13.4804 12.4844L13.9685 14.9647Z" fill="#59C36A"/>
<path d="M13.9686 14.9646L13.4805 12.4844L11.1297 12.1258C10.3826 12.6736 9.47614 12.9824 8.5 12.9824V17C10.5819 17 12.4943 16.2098 13.9686 14.9646Z" fill="#00A66C"/>
<path d="M4.01758 8.5C4.01758 8.95817 4.0873 9.39645 4.20684 9.80488L1.20859 12.8031C0.461523 11.548 0 10.0738 0 8.5C0 6.92613 0.461523 5.45195 1.20859 4.19687L3.61492 4.61101L4.20684 7.19511C4.0873 7.60348 4.01758 8.04176 4.01758 8.5Z" fill="#FFDA2D"/>
<path d="M17 8.5C17 11.0898 15.8014 13.4107 13.9686 14.9646L11.1297 12.1258C11.7074 11.7074 12.1955 11.1496 12.5143 10.4922H8.5C8.22106 10.4922 8.00195 10.273 8.00195 9.99414V7.00586C8.00195 6.72692 8.22106 6.50781 8.5 6.50781H16.3625C16.6016 6.50781 16.8107 6.67712 16.8506 6.91618C16.9502 7.43418 17 7.97204 17 8.5Z" fill="#4086F4"/>
<path d="M12.5143 10.4922C12.1955 11.1496 11.7074 11.7074 11.1297 12.1258L13.9686 14.9646C15.8014 13.4107 17 11.0898 17 8.5C17 7.97204 16.9502 7.43418 16.8506 6.91618C16.8107 6.67712 16.6015 6.50781 16.3625 6.50781H8.5V10.4922H12.5143Z" fill="#4175DF"/>
<path d="M14.1079 2.37399C14.1179 2.51344 14.0581 2.64297 13.9685 2.74254L11.8368 4.86422C11.6675 5.04352 11.3886 5.06344 11.1894 4.91403C10.4024 4.32637 9.47604 4.01758 8.4999 4.01758C6.48776 4.01758 4.77451 5.36227 4.20674 7.19512L1.2085 4.19688C2.68268 1.70664 5.40205 0 8.4999 0C10.4821 0 12.4146 0.730469 13.9286 2.00544C14.0382 2.09512 14.098 2.23454 14.1079 2.37399Z" fill="#FF641A"/>
<path d="M11.1895 4.91403C11.3887 5.06348 11.6675 5.04352 11.8369 4.86422L13.9685 2.74254C14.0582 2.64297 14.118 2.51348 14.108 2.37399C14.098 2.2345 14.0383 2.09512 13.9287 2.00544C12.4147 0.730469 10.4822 0 8.5 0V4.01758C9.47614 4.01758 10.4025 4.32637 11.1895 4.91403Z" fill="#F03800"/>
</g>
<defs>
<clipPath id="clip0_53_183">
<rect width="17" height="17" fill="white"/>
</clipPath>
</defs>
</svg>
