<svg width="15" height="28" viewBox="0 0 15 28" fill="none" xmlns="http://www.w3.org/2000/svg">
<path fill-rule="evenodd" clip-rule="evenodd" d="M11.0303 18.4697C10.7374 18.1768 10.2626 18.1768 9.96967 18.4697L7.5 20.9394L5.03032 18.4697C4.73745 18.1768 4.26255 18.1768 3.96967 18.4697C3.6768 18.7626 3.6768 19.2374 3.96967 19.5303L6.96967 22.5303C7.26255 22.8232 7.73744 22.8232 8.03033 22.5303L11.0303 19.5303C11.3232 19.2374 11.3232 18.7626 11.0303 18.4697Z" fill="#56647E" fill-opacity="0.45"/>
<path fill-rule="evenodd" clip-rule="evenodd" d="M11.0303 9.53033C10.7374 9.82322 10.2626 9.82322 9.96967 9.53033L7.5 7.06065L5.03032 9.53033C4.73745 9.82322 4.26255 9.82322 3.96967 9.53033C3.6768 9.23743 3.6768 8.76256 3.96967 8.46967L6.96967 5.46968C7.26255 5.1768 7.73744 5.1768 8.03033 5.46968L11.0303 8.46967C11.3232 8.76256 11.3232 9.23743 11.0303 9.53033Z" fill="#56647E" fill-opacity="0.45"/>
</svg>
