<svg width="23" height="23" viewBox="0 0 23 23" fill="none" xmlns="http://www.w3.org/2000/svg">
<path fill-rule="evenodd" clip-rule="evenodd" d="M18.2084 16.8868C18.2084 16.2514 17.9564 15.6419 17.5069 15.1934C17.3143 15.0008 17.0795 14.766 16.8533 14.5398C16.1346 13.8211 15.159 13.4167 14.1422 13.4167C12.7037 13.4167 10.2964 13.4167 8.85796 13.4167C7.84117 13.4167 6.86558 13.8211 6.14683 14.5398C5.92066 14.766 5.68587 15.0008 5.49325 15.1934C5.04379 15.6419 4.79175 16.2514 4.79175 16.8868V18.6875C4.79175 19.3229 5.04379 19.9324 5.49325 20.3818C5.94271 20.8313 6.55221 21.0833 7.18758 21.0833H15.8126C16.448 21.0833 17.0575 20.8313 17.5069 20.3818C17.9564 19.9324 18.2084 19.3229 18.2084 18.6875C18.2084 18.0636 18.2084 17.3679 18.2084 16.8868ZM16.2917 16.8868V18.6875C16.2917 18.815 16.241 18.9367 16.1518 19.0268C16.0617 19.1159 15.94 19.1667 15.8126 19.1667C13.6036 19.1667 9.39654 19.1667 7.18758 19.1667C7.06012 19.1667 6.93841 19.1159 6.84833 19.0268C6.75921 18.9367 6.70841 18.815 6.70841 18.6875C6.70841 18.0636 6.70841 17.3679 6.70841 16.8868C6.70841 16.7603 6.75921 16.6386 6.84833 16.5485C7.04096 16.3559 7.27575 16.1211 7.50191 15.8949C7.86129 15.5355 8.34908 15.3333 8.85796 15.3333H14.1422C14.6511 15.3333 15.1389 15.5355 15.4983 15.8949L16.1518 16.5485C16.241 16.6386 16.2917 16.7603 16.2917 16.8868ZM15.3334 5.75C15.3334 3.63304 13.617 1.91667 11.5001 1.91667C9.38312 1.91667 7.66675 3.63304 7.66675 5.75V7.66667C7.66675 9.78363 9.38312 11.5 11.5001 11.5C13.617 11.5 15.3334 9.78363 15.3334 7.66667V5.75ZM11.5001 3.83334C10.4411 3.83334 9.58342 4.692 9.58342 5.75V7.66667C9.58342 8.72563 10.4411 9.58333 11.5001 9.58333C12.559 9.58333 13.4167 8.72563 13.4167 7.66667V5.75C13.4167 4.692 12.559 3.83334 11.5001 3.83334Z" fill="#56647E" fill-opacity="0.45"/>
</svg>
