<svg width="15" height="15" viewBox="0 0 15 15" fill="none" xmlns="http://www.w3.org/2000/svg">
<path d="M12.4722 2.52823C11.8123 1.86998 10.9183 1.50032 9.98631 1.50032C9.05427 1.50032 8.16028 1.86998 7.50042 2.52823L7.16892 2.85963C7.12538 2.90316 7.09084 2.95483 7.06727 3.0117C7.04371 3.06858 7.03157 3.12954 7.03157 3.1911C7.03156 3.25266 7.04368 3.31362 7.06724 3.3705C7.0908 3.42738 7.12532 3.47906 7.16885 3.52259L7.83164 4.18536C7.91954 4.27326 8.03875 4.32264 8.16305 4.32265C8.28735 4.32266 8.40657 4.2733 8.49448 4.18542L8.8261 3.85391C9.13382 3.54625 9.55114 3.37342 9.98628 3.37344C10.4214 3.37345 10.8387 3.54632 11.1464 3.85401C11.4541 4.1617 11.627 4.57901 11.627 5.01414C11.627 5.44928 11.4542 5.8666 11.1465 6.17432L9.48895 7.83141C9.19854 8.11858 8.81199 8.28791 8.40401 8.30668C7.99602 8.32545 7.59556 8.19233 7.28001 7.93303L6.92029 7.63259C6.87304 7.59312 6.81847 7.56335 6.75971 7.54497C6.70094 7.52659 6.63913 7.51997 6.57781 7.52549C6.51649 7.531 6.45685 7.54855 6.40231 7.57712C6.34777 7.60568 6.29939 7.64472 6.25994 7.69199L5.65917 8.41178C5.57951 8.50723 5.54103 8.63041 5.55219 8.75424C5.56335 8.87806 5.62323 8.99238 5.71868 9.07205L6.0784 9.37225C6.75048 9.93813 7.611 10.2302 8.48868 10.1903C9.36637 10.1505 10.1969 9.78158 10.8149 9.1571L12.4724 7.5C13.1316 6.84065 13.502 5.94644 13.5019 5.01407C13.5019 4.08169 13.1315 3.18752 12.4722 2.52823Z" fill="#6572E1"/>
<path d="M7.16897 10.8146C7.08107 10.7267 6.96186 10.6774 6.83756 10.6774C6.71325 10.6773 6.59404 10.7267 6.50612 10.8146L6.17451 11.1461C5.86679 11.4538 5.44947 11.6266 5.01433 11.6266C4.57919 11.6265 4.16188 11.4537 3.8542 11.146C3.54651 10.8383 3.37364 10.421 3.37362 9.98586C3.37361 9.55072 3.54644 9.1334 3.8541 8.82568L5.51166 7.1686C5.80195 6.88121 6.18853 6.71173 6.59659 6.69296C7.00464 6.67419 7.40515 6.80745 7.7206 7.06697L8.08032 7.36741C8.12757 7.40688 8.18214 7.43665 8.2409 7.45503C8.29967 7.47341 8.36148 7.48003 8.4228 7.47451C8.48412 7.469 8.54376 7.45146 8.5983 7.42289C8.65284 7.39432 8.70122 7.35528 8.74067 7.30801L9.34144 6.58822C9.4211 6.49277 9.45958 6.36958 9.44841 6.24576C9.43725 6.12194 9.37735 6.00762 9.28191 5.92795L8.92219 5.62775C8.25012 5.06183 7.38959 4.76973 6.5119 4.8096C5.6342 4.84947 4.8037 5.21838 4.18571 5.8429L2.52819 7.5C1.86889 8.15933 1.49851 9.05356 1.49854 9.98597C1.49856 10.9184 1.86897 11.8126 2.5283 12.4719C3.18763 13.1312 4.08186 13.5016 5.01427 13.5015C5.94668 13.5015 6.84089 13.1311 7.50019 12.4718L7.83169 12.1404C7.87523 12.0968 7.90977 12.0452 7.93334 11.9883C7.9569 11.9314 7.96903 11.8705 7.96904 11.8089C7.96905 11.7473 7.95692 11.6864 7.93337 11.6295C7.90981 11.5726 7.87528 11.5209 7.83175 11.4774L7.16897 10.8146Z" fill="#6572E1"/>
</svg>
