<svg width="13" height="13" viewBox="0 0 13 13" fill="none" xmlns="http://www.w3.org/2000/svg">
<path d="M6.50022 0.812195C3.81505 0.812193 1.62402 3.00172 1.62402 5.6869V7.31229C1.62416 7.47371 1.68833 7.62848 1.80246 7.74264L6.06838 12.0086C6.12497 12.0652 6.19218 12.1101 6.26615 12.1408C6.34012 12.1715 6.4194 12.1872 6.49947 12.1872C6.57954 12.1872 6.65883 12.1715 6.7328 12.1408C6.80677 12.1101 6.87397 12.0652 6.93056 12.0086C7.04451 11.8943 7.1085 11.7396 7.1085 11.5782C7.1085 11.4169 7.04451 11.2621 6.93056 11.1479L2.84307 7.06039V5.6869C2.84307 3.66039 4.47371 2.03124 6.50022 2.03124C8.52672 2.03125 10.1559 3.66039 10.1559 5.6869V7.06039L8.50648 8.70978C8.44984 8.76637 8.4049 8.83357 8.37424 8.90754C8.34358 8.98151 8.3278 9.0608 8.3278 9.14087C8.3278 9.22094 8.34358 9.30023 8.37424 9.3742C8.4049 9.44817 8.44984 9.51537 8.50648 9.57196C8.56307 9.62861 8.63028 9.67354 8.70425 9.7042C8.77821 9.73486 8.8575 9.75064 8.93757 9.75064C9.01764 9.75064 9.09693 9.73486 9.1709 9.7042C9.24487 9.67354 9.31207 9.62861 9.36866 9.57196L11.1965 7.74264C11.3106 7.62848 11.3748 7.47371 11.3749 7.31229V5.6869C11.3749 3.00173 9.18539 0.812198 6.50022 0.812195Z" fill="#6572E1"/>
<path d="M7.71815 9.7504C7.55674 9.75056 7.40199 9.81475 7.28786 9.92888C7.17372 10.043 7.10953 10.1978 7.10938 10.3592C7.10926 10.4392 7.12491 10.5185 7.15545 10.5925C7.18598 10.6665 7.23079 10.7338 7.28733 10.7904C7.34386 10.8471 7.41101 10.8921 7.48493 10.9228C7.55885 10.9535 7.6381 10.9694 7.71815 10.9694C7.79833 10.9696 7.87774 10.9539 7.95183 10.9232C8.02593 10.8926 8.09325 10.8477 8.14995 10.791C8.20664 10.7343 8.25159 10.667 8.28221 10.5929C8.31284 10.5188 8.32854 10.4393 8.32843 10.3592C8.32835 10.2791 8.3125 10.1999 8.28178 10.126C8.25107 10.052 8.20609 9.98488 8.14941 9.92835C8.09274 9.87182 8.02548 9.827 7.95149 9.79647C7.87749 9.76593 7.7982 9.75028 7.71815 9.7504Z" fill="#6572E1"/>
<path d="M6.5005 3.45271C5.38589 3.45271 4.46875 4.36985 4.46875 5.48446C4.46875 6.59907 5.38589 7.51621 6.5005 7.51621C7.61511 7.51621 8.53075 6.59907 8.53075 5.48446C8.53075 4.36985 7.61511 3.45271 6.5005 3.45271ZM6.5005 4.67176C6.95644 4.67176 7.3117 5.02851 7.3117 5.48446C7.3117 5.94041 6.95644 6.29716 6.5005 6.29716C6.04455 6.29716 5.6878 5.94041 5.6878 5.48446C5.6878 5.02851 6.04455 4.67176 6.5005 4.67176Z" fill="#6572E1"/>
</svg>
