<svg width="15" height="15" viewBox="0 0 15 15" fill="none" xmlns="http://www.w3.org/2000/svg">
<g clip-path="url(#clip0_88_362)">
<path d="M6.17417 0.54918C6.9064 -0.18305 8.09359 -0.18305 8.82582 0.54918C9.55805 1.28141 9.55805 2.4686 8.82582 3.20083C8.09359 3.93306 6.9064 3.93306 6.17417 3.20083C5.44194 2.4686 5.44194 1.28141 6.17417 0.54918Z" fill="#C4C4C4"/>
<path d="M6.17417 6.17417C6.9064 5.44194 8.09359 5.44194 8.82582 6.17417C9.55805 6.9064 9.55805 8.09358 8.82582 8.82581C8.09359 9.55804 6.9064 9.55804 6.17417 8.82581C5.44194 8.09358 5.44194 6.9064 6.17417 6.17417Z" fill="#C4C4C4"/>
<path d="M6.17417 11.7992C6.9064 11.0669 8.09359 11.0669 8.82582 11.7992C9.55805 12.5314 9.55805 13.7186 8.82582 14.4508C8.09359 15.183 6.9064 15.183 6.17417 14.4508C5.44194 13.7186 5.44194 12.5314 6.17417 11.7992Z" fill="#C4C4C4"/>
</g>
<defs>
<clipPath id="clip0_88_362">
<rect width="15" height="15" fill="white" transform="matrix(0 -1 1 0 0 15)"/>
</clipPath>
</defs>
</svg>
