<svg width="21" height="21" viewBox="0 0 21 21" fill="none" xmlns="http://www.w3.org/2000/svg">
<path d="M11.0198 10.9164C11.4688 10.8558 11.7837 10.4427 11.723 9.99374C11.6624 9.54475 11.2493 9.23003 10.8004 9.29049C10.7016 9.30382 10.6004 9.31059 10.5 9.31059C9.27872 9.31059 8.28512 8.31698 8.28512 7.09574C8.28512 5.8745 9.27872 4.8809 10.5 4.8809C11.7212 4.8809 12.7148 5.8745 12.7148 7.09574C12.7148 7.2167 12.705 7.33786 12.6858 7.4559C12.6129 7.90305 12.9163 8.32465 13.3634 8.39754C13.8111 8.47038 14.2322 8.16703 14.3051 7.71992C14.3385 7.51484 14.3555 7.30484 14.3555 7.0957C14.3555 4.96978 12.6259 3.24023 10.5 3.24023C8.37408 3.24023 6.64453 4.96978 6.64453 7.0957C6.64453 9.22162 8.37408 10.9512 10.5 10.9512C10.6736 10.9512 10.8486 10.9394 11.0198 10.9164Z" fill="#6572E1"/>
<path d="M17.9962 16.2671C17.3652 15.9361 16.4988 15.6573 15.4212 15.4383C14.977 15.3482 14.5442 15.6349 14.4539 16.0788C14.3638 16.5228 14.6505 16.9559 15.0945 17.0461C16.7568 17.3838 17.4383 17.7892 17.6349 17.9858C17.4901 18.1309 17.0058 18.4952 15.5831 18.8377C14.1856 19.1741 12.3804 19.3594 10.5 19.3594C8.61956 19.3594 6.81442 19.1741 5.41693 18.8377C3.99418 18.4952 3.50995 18.131 3.36513 17.9858C3.56171 17.7892 4.24319 17.3838 5.90555 17.0461C6.34951 16.9559 6.63629 16.5228 6.54609 16.0788C6.4559 15.6349 6.02278 15.3482 5.57886 15.4383C4.50122 15.6573 3.63485 15.9361 3.00382 16.2671C2.1265 16.7273 1.68164 17.3061 1.68164 17.9872C1.68164 19.0049 2.67282 19.7927 4.62763 20.3286C6.20694 20.7616 8.29246 21 10.5 21C12.7075 21 14.7931 20.7616 16.3724 20.3286C18.3272 19.7927 19.3184 19.0049 19.3184 17.9872C19.3184 17.3061 18.8735 16.7273 17.9962 16.2671Z" fill="#6572E1"/>
<path d="M9.80659 17.3367C9.95691 17.5745 10.2187 17.7188 10.5 17.7188C10.7813 17.7188 11.0431 17.5745 11.1934 17.3367C11.9455 16.1468 12.9244 15.1031 13.8712 14.0938C15.721 12.1217 17.6338 10.0824 17.6367 7.0537C17.6345 5.15509 16.8884 3.37755 15.5359 2.04848C14.1915 0.727494 12.403 0 10.5 0C8.59815 0 6.81606 0.728437 5.48203 2.05111C4.14438 3.37739 3.40651 5.15406 3.4043 7.05551C3.40721 10.0874 5.3107 12.1303 7.15153 14.106C8.08849 15.1116 9.05732 16.1513 9.80659 17.3367ZM10.5 1.64062C13.5271 1.64062 15.9926 4.06982 15.9961 7.05391C15.9938 9.43277 14.4556 11.0726 12.6746 12.9714C11.9374 13.7574 11.1816 14.563 10.5005 15.4624C9.82583 14.5694 9.07967 13.7686 8.35189 12.9875C6.57866 11.0844 5.04726 9.44081 5.04492 7.05563C5.04841 4.01916 7.44458 1.64062 10.5 1.64062Z" fill="#6572E1"/>
</svg>
