<svg width="19" height="19" viewBox="0 0 19 19" fill="none" xmlns="http://www.w3.org/2000/svg">
<path d="M7.12326 1.18808C5.6592 1.18808 4.4537 2.3943 4.4537 3.85938V6.23496H3.85995C2.39486 6.23496 1.18866 7.44117 1.18866 8.90625V11.8762C1.18866 13.3412 2.39486 14.5475 3.85995 14.5475H4.4537V15.1412C4.4537 16.6063 5.65991 17.8125 7.125 17.8125H11.8744C13.3395 17.8125 14.548 16.6063 14.548 15.1412V14.5475H15.1395C16.6045 14.5475 17.8131 13.3412 17.8131 11.8762V8.90625C17.8131 7.44117 16.6046 6.23496 15.1395 6.23496H14.548V3.85938C14.548 2.3943 13.3408 1.18808 11.8767 1.18808H7.12326ZM7.12326 2.96991H11.8767C12.3762 2.96991 12.7662 3.35695 12.7662 3.85938V7.125C12.7667 7.61617 13.1651 8.01394 13.6563 8.01447H15.1395C15.6419 8.01447 16.0312 8.40382 16.0312 8.90625V11.8762C16.0312 12.3786 15.6419 12.7656 15.1395 12.7656H14.548V10.9844C14.5479 10.8674 14.5248 10.7515 14.4799 10.6435C14.4351 10.5354 14.3694 10.4373 14.2865 10.3546C14.2037 10.2719 14.1054 10.2064 13.9973 10.1618C13.8891 10.1171 13.7733 10.0942 13.6563 10.0943H5.34375C5.10775 10.0945 4.88146 10.1883 4.71459 10.3552C4.54771 10.5221 4.45388 10.7484 4.4537 10.9844V12.7656H3.85995C3.35752 12.7656 2.96817 12.3786 2.96817 11.8762V8.90625C2.96817 8.40382 3.35751 8.01447 3.85995 8.01447H8.31308C8.80427 8.01398 9.20265 7.6162 9.20313 7.125C9.20265 6.6338 8.80427 6.23544 8.31308 6.23496H6.23322V3.85938C6.23322 3.35695 6.62383 2.96991 7.12326 2.96991ZM6.23322 11.8762H12.7662V15.1412C12.7662 15.6436 12.3769 16.0312 11.8744 16.0312H7.125C6.62257 16.0312 6.23322 15.6436 6.23322 15.1412V11.8762Z" fill="#56647E" fill-opacity="0.45"/>
<path d="M10.9845 6.23511C10.7486 6.23534 10.5225 6.32915 10.3556 6.49596C10.1888 6.66278 10.095 6.88895 10.0948 7.12486C10.095 7.36076 10.1888 7.58694 10.3556 7.75375C10.5225 7.92056 10.7486 8.01438 10.9845 8.01461C11.2204 8.01438 11.4466 7.92056 11.6134 7.75375C11.7802 7.58694 11.8741 7.36076 11.8743 7.12486C11.8741 6.88895 11.7802 6.66278 11.6134 6.49596C11.4466 6.32915 11.2204 6.23534 10.9845 6.23511Z" fill="#56647E" fill-opacity="0.45"/>
</svg>
