<svg width="19" height="19" viewBox="0 0 19 19" fill="none" xmlns="http://www.w3.org/2000/svg">
<path d="M14.2742 13.1551L17.6649 16.5451L16.5447 17.6653L13.1548 14.2746C11.8934 15.2857 10.3246 15.8356 8.70801 15.8333C4.77501 15.8333 1.58301 12.6413 1.58301 8.70834C1.58301 4.77534 4.77501 1.58334 8.70801 1.58334C12.641 1.58334 15.833 4.77534 15.833 8.70834C15.8353 10.3249 15.2853 11.8938 14.2742 13.1551ZM12.6861 12.5677C13.6908 11.5345 14.252 10.1495 14.2497 8.70834C14.2497 5.64618 11.7694 3.16668 8.70801 3.16668C5.64584 3.16668 3.16634 5.64618 3.16634 8.70834C3.16634 11.7697 5.64584 14.25 8.70801 14.25C10.1492 14.2523 11.5342 13.6912 12.5674 12.6865L12.6861 12.5677Z" fill="#56647E" fill-opacity="0.45"/>
</svg>
