<svg width="23" height="23" viewBox="0 0 23 23" fill="none" xmlns="http://www.w3.org/2000/svg">
<path d="M19.7252 17.9014C19.4758 18.1507 19.2198 18.3888 18.9413 18.6044C19.0087 18.5527 19.0783 18.4988 19.1457 18.4472C18.6717 18.811 18.1551 19.112 17.6049 19.3434C17.6857 19.3097 17.7666 19.276 17.8452 19.2423C17.2814 19.4759 16.6907 19.6354 16.0865 19.7185C16.1763 19.7072 16.2662 19.6937 16.356 19.6825C15.7406 19.7634 15.1184 19.7634 14.503 19.6803C14.5928 19.6915 14.6827 19.705 14.7725 19.7162C14.1638 19.6331 13.5709 19.4691 13.0049 19.2311C13.0857 19.2647 13.1666 19.2984 13.2452 19.3321C12.6994 19.0985 12.185 18.7976 11.7133 18.4337C11.7807 18.4854 11.8504 18.5393 11.9177 18.5909C11.5045 18.2675 11.1406 17.8924 10.77 17.5218C10.2489 17.0007 9.7278 16.4796 9.20671 15.9585C8.55309 15.3049 7.89948 14.6513 7.24587 13.9977C6.69782 13.4496 6.14753 12.8993 5.59948 12.3513C5.30749 12.0593 5.00651 11.774 4.73024 11.4686C4.61794 11.3428 4.51012 11.2125 4.4068 11.08C4.45846 11.1474 4.51237 11.217 4.56403 11.2844C4.20016 10.8127 3.89919 10.2983 3.66784 9.75254C3.70153 9.8334 3.73522 9.91426 3.76891 9.99287C3.53083 9.4291 3.36911 8.83613 3.286 8.22969C3.29723 8.31953 3.31071 8.40937 3.32194 8.49922C3.23883 7.87705 3.23883 7.2459 3.32194 6.62373C3.31071 6.71357 3.29723 6.80342 3.286 6.89326C3.36911 6.28682 3.53083 5.69609 3.76891 5.13008C3.73522 5.21094 3.70153 5.2918 3.66784 5.37041C3.90143 4.82236 4.20241 4.30801 4.56403 3.83857C4.51237 3.90596 4.45846 3.97559 4.4068 4.04297C4.6404 3.74199 4.8987 3.42529 5.19743 3.18496C5.13005 3.23662 5.06042 3.29053 4.99303 3.34219C5.0694 3.28379 5.15026 3.23662 5.23786 3.19844C5.157 3.23213 5.07614 3.26582 4.99753 3.29951C5.08512 3.26582 5.17272 3.24111 5.26481 3.22764C5.17497 3.23887 5.08512 3.25234 4.99528 3.26357C5.08737 3.25234 5.17946 3.25234 5.27155 3.26357C5.18171 3.25234 5.09186 3.23887 5.00202 3.22764C5.09411 3.24111 5.18395 3.26582 5.2693 3.29951C5.18844 3.26582 5.10758 3.23213 5.02897 3.19844C5.11657 3.23662 5.19743 3.28379 5.2738 3.34219C5.20641 3.29053 5.13678 3.23662 5.0694 3.18496C5.20417 3.29277 5.32321 3.42754 5.4445 3.54883C5.68708 3.79141 5.92966 4.03398 6.17223 4.27656C6.72926 4.83359 7.2863 5.39062 7.84333 5.94766C7.98932 6.09365 8.1488 6.23291 8.27907 6.39463C8.22741 6.32725 8.1735 6.25762 8.12184 6.19023C8.18024 6.2666 8.22741 6.34746 8.26559 6.43506C8.2319 6.3542 8.19821 6.27334 8.16452 6.19473C8.19821 6.28232 8.22292 6.36992 8.23639 6.46426C8.22516 6.37441 8.21169 6.28457 8.20046 6.19473C8.21169 6.28682 8.21169 6.37891 8.20046 6.471C8.21169 6.38115 8.22516 6.29131 8.23639 6.20146C8.22292 6.29355 8.19821 6.3834 8.16452 6.471C8.19821 6.39014 8.2319 6.30928 8.26559 6.23066C8.22741 6.31826 8.18024 6.39912 8.12184 6.47549C8.1735 6.4081 8.22741 6.33848 8.27907 6.27109C8.15329 6.42607 8.00055 6.56084 7.85905 6.70234C7.70632 6.85508 7.55133 7.00781 7.3986 7.16279C6.64841 7.91748 6.34967 8.99785 6.59225 10.0311C6.72926 10.6218 7.07067 11.1204 7.49294 11.5427L8.21393 12.2637C8.97087 13.0206 9.72555 13.7753 10.4825 14.5322C10.7655 14.8152 11.0485 15.0982 11.3315 15.3812C11.6033 15.653 11.8751 15.9203 12.2165 16.109C13.1688 16.6346 14.4176 16.6323 15.3273 16.0102C15.7855 15.6957 16.1606 15.2712 16.5514 14.8826C16.6076 14.8265 16.6615 14.7703 16.7244 14.7209C16.657 14.7726 16.5874 14.8265 16.52 14.8781C16.5964 14.8197 16.6772 14.7726 16.7648 14.7344C16.684 14.7681 16.6031 14.8018 16.5245 14.8354C16.6121 14.8018 16.6997 14.777 16.794 14.7636C16.7042 14.7748 16.6143 14.7883 16.5245 14.7995C16.6166 14.7883 16.7087 14.7883 16.8007 14.7995C16.7109 14.7883 16.6211 14.7748 16.5312 14.7636C16.6233 14.777 16.7132 14.8018 16.8007 14.8354C16.7199 14.8018 16.639 14.7681 16.5604 14.7344C16.648 14.7726 16.7289 14.8197 16.8052 14.8781C16.7379 14.8265 16.6682 14.7726 16.6008 14.7209C16.7356 14.8287 16.8547 14.9635 16.9759 15.0848L17.7037 15.8125L19.3748 17.4836C19.5208 17.6296 19.6802 17.7688 19.8105 17.9306C19.7589 17.8632 19.7049 17.7936 19.6533 17.7262C19.7117 17.8025 19.7589 17.8834 19.797 17.971C19.7633 17.8901 19.7297 17.8093 19.696 17.7307C19.7297 17.8183 19.7544 17.9059 19.7678 17.9979C19.7566 17.9081 19.7431 17.8183 19.7319 17.7284C19.7431 17.8205 19.7431 17.9126 19.7319 18.0047C19.7431 17.9148 19.7566 17.825 19.7678 17.7352C19.7544 17.8272 19.7297 17.9171 19.696 18.0024C19.7297 17.9216 19.7633 17.8407 19.797 17.7621C19.7589 17.8497 19.7117 17.9306 19.6533 18.0069C19.7049 17.9395 19.7589 17.8699 19.8105 17.8025C19.7858 17.8385 19.7566 17.8699 19.7252 17.9014C19.5432 18.09 19.4287 18.3528 19.4287 18.6156C19.4287 18.8627 19.5387 19.1592 19.7252 19.3299C19.9183 19.5073 20.1699 19.6376 20.4394 19.6264C20.7045 19.6151 20.965 19.5253 21.1537 19.3299C21.8006 18.6628 21.9308 17.6812 21.5018 16.8637C21.3805 16.6323 21.1986 16.4437 21.0144 16.2617C20.6146 15.8619 20.2148 15.4621 19.815 15.0623C19.3635 14.6108 18.9121 14.1594 18.4606 13.7079C18.355 13.6023 18.2472 13.4945 18.1417 13.389C17.9867 13.2362 17.807 13.0925 17.6093 13.0004C17.4341 12.9173 17.2612 12.8454 17.0703 12.814C16.7513 12.7646 16.5177 12.7623 16.1965 12.8229C15.3093 12.9914 14.8556 13.8382 14.1953 14.3548C14.2627 14.3031 14.3323 14.2492 14.3997 14.1976C14.2649 14.3009 14.1189 14.384 13.9639 14.4514C14.0448 14.4177 14.1257 14.384 14.2043 14.3503C14.0425 14.4177 13.8741 14.4648 13.6989 14.4895C13.7887 14.4783 13.8786 14.4648 13.9684 14.4536C13.7842 14.4783 13.6001 14.4783 13.4181 14.4536C13.508 14.4648 13.5978 14.4783 13.6877 14.4895C13.5125 14.4648 13.344 14.4177 13.1823 14.3503C13.2632 14.384 13.344 14.4177 13.4226 14.4514C13.2676 14.384 13.1216 14.2986 12.9869 14.1976C13.0543 14.2492 13.1239 14.3031 13.1913 14.3548C12.9869 14.1953 12.8072 13.9954 12.6253 13.8112C12.2861 13.4721 11.9469 13.1329 11.6078 12.7937C10.8329 12.0188 10.0557 11.2417 9.28083 10.4668C9.06745 10.2534 8.82936 10.0445 8.64294 9.8042C8.6946 9.87158 8.7485 9.94121 8.80016 10.0086C8.69684 9.87383 8.61374 9.72783 8.54635 9.57285C8.58005 9.65371 8.61374 9.73457 8.64743 9.81318C8.58005 9.65146 8.53288 9.48301 8.50817 9.30781C8.5194 9.39766 8.53288 9.4875 8.54411 9.57734C8.5194 9.39316 8.5194 9.20898 8.54411 9.02705C8.53288 9.11689 8.5194 9.20674 8.50817 9.29658C8.53288 9.12139 8.58005 8.95293 8.64743 8.79121C8.61374 8.87207 8.58005 8.95293 8.54635 9.03154C8.61374 8.87656 8.69909 8.73057 8.80016 8.5958C8.7485 8.66318 8.6946 8.73281 8.64294 8.80019C8.94391 8.41611 9.34372 8.11514 9.66716 7.74902C9.91423 7.46826 10.1209 7.1291 10.1815 6.754C10.213 6.56309 10.2399 6.38564 10.2197 6.19473C10.1882 5.89375 10.1343 5.6916 10.0108 5.41533C9.90075 5.17051 9.72331 4.96836 9.53464 4.77969C8.76423 4.00928 7.99606 3.24111 7.22565 2.4707C6.9943 2.23936 6.77194 1.98779 6.52262 1.77441C6.23962 1.53408 5.90944 1.33867 5.53659 1.28027C5.22887 1.23086 5.03122 1.23311 4.7235 1.28027C4.53258 1.30947 4.35964 1.38359 4.18444 1.4667C3.77116 1.65986 3.42526 2.06641 3.13551 2.41006C2.44147 3.23887 1.91364 4.17324 1.5902 5.20644C1.3027 6.1206 1.18366 7.11338 1.25329 8.06797C1.3319 9.13711 1.60368 10.1501 2.07536 11.1137C2.44821 11.8773 2.9693 12.5804 3.56901 13.1823L5.03796 14.6513L7.68835 17.3017C8.34196 17.9553 8.99333 18.6066 9.64694 19.2603C9.98835 19.6017 10.3455 19.9139 10.7296 20.2081C11.5629 20.8437 12.5556 21.2997 13.5754 21.54C15.7406 22.0477 18.1192 21.6456 19.9453 20.3496C20.3788 20.0419 20.7763 19.7027 21.1514 19.3276C21.3356 19.1435 21.4479 18.8717 21.4479 18.6134C21.4479 18.3663 21.3379 18.0698 21.1514 17.8991C20.9583 17.7217 20.7067 17.5914 20.4372 17.6026C20.1721 17.6184 19.9183 17.7082 19.7252 17.9014Z" fill="#6572E1"/>
</svg>
