<svg width="21" height="21" viewBox="0 0 21 21" fill="none" xmlns="http://www.w3.org/2000/svg">
<path d="M7.875 16.625C7.875 17.1442 8.02895 17.6517 8.31739 18.0834C8.60583 18.515 9.0158 18.8515 9.49546 19.0502C9.97511 19.2489 10.5029 19.3008 11.0121 19.1996C11.5213 19.0983 11.989 18.8483 12.3562 18.4812C12.7233 18.114 12.9733 17.6463 13.0746 17.1371C13.1758 16.6279 13.1239 16.1001 12.9252 15.6205C12.7265 15.1408 12.3901 14.7308 11.9584 14.4424C11.5267 14.154 11.0192 14 10.5 14C9.80404 14.0008 9.13681 14.2776 8.64469 14.7697C8.15257 15.2618 7.87576 15.929 7.875 16.625ZM11.375 16.625C11.375 16.7981 11.3237 16.9672 11.2275 17.1111C11.1314 17.255 10.9947 17.3672 10.8348 17.4334C10.675 17.4996 10.499 17.5169 10.3293 17.4832C10.1596 17.4494 10.0037 17.3661 9.88128 17.2437C9.75891 17.1213 9.67557 16.9654 9.64181 16.7957C9.60805 16.626 9.62538 16.45 9.69161 16.2902C9.75783 16.1303 9.86998 15.9936 10.0139 15.8975C10.1578 15.8013 10.3269 15.75 10.5 15.75C10.732 15.7503 10.9544 15.8426 11.1184 16.0066C11.2824 16.1706 11.3747 16.393 11.375 16.625Z" fill="#56647E" fill-opacity="0.45"/>
<path d="M7.875 10.5C7.875 11.0192 8.02895 11.5267 8.31739 11.9584C8.60583 12.39 9.0158 12.7265 9.49546 12.9252C9.97511 13.1239 10.5029 13.1758 11.0121 13.0746C11.5213 12.9733 11.989 12.7233 12.3562 12.3562C12.7233 11.989 12.9733 11.5213 13.0746 11.0121C13.1758 10.5029 13.1239 9.97511 12.9252 9.49546C12.7265 9.0158 12.3901 8.60583 11.9584 8.31739C11.5267 8.02895 11.0192 7.875 10.5 7.875C9.80404 7.87576 9.13681 8.15257 8.64469 8.64469C8.15257 9.13681 7.87576 9.80404 7.875 10.5ZM11.375 10.5C11.375 10.6731 11.3237 10.8422 11.2275 10.9861C11.1314 11.13 10.9947 11.2422 10.8348 11.3084C10.675 11.3746 10.499 11.3919 10.3293 11.3582C10.1596 11.3244 10.0037 11.2411 9.88128 11.1187C9.75891 10.9963 9.67557 10.8404 9.64181 10.6707C9.60805 10.501 9.62538 10.325 9.69161 10.1652C9.75783 10.0053 9.86998 9.86861 10.0139 9.77246C10.1578 9.67632 10.3269 9.625 10.5 9.625C10.732 9.6253 10.9544 9.71758 11.1184 9.88161C11.2824 10.0456 11.3747 10.268 11.375 10.5Z" fill="#56647E" fill-opacity="0.45"/>
<path d="M7.875 4.375C7.875 4.89417 8.02895 5.40169 8.31739 5.83337C8.60583 6.26505 9.0158 6.6015 9.49546 6.80018C9.97511 6.99886 10.5029 7.05085 11.0121 6.94956C11.5213 6.84827 11.989 6.59827 12.3562 6.23115C12.7233 5.86404 12.9733 5.39631 13.0746 4.88711C13.1758 4.37791 13.1239 3.85011 12.9252 3.37046C12.7265 2.8908 12.3901 2.48083 11.9584 2.19239C11.5267 1.90395 11.0192 1.75 10.5 1.75C9.80404 1.75076 9.13681 2.02757 8.64469 2.51969C8.15257 3.01181 7.87576 3.67904 7.875 4.375ZM11.375 4.375C11.375 4.54806 11.3237 4.71723 11.2275 4.86112C11.1314 5.00502 10.9947 5.11717 10.8348 5.18339C10.675 5.24962 10.499 5.26695 10.3293 5.23319C10.1596 5.19942 10.0037 5.11609 9.88128 4.99372C9.75891 4.87135 9.67557 4.71544 9.64181 4.5457C9.60805 4.37597 9.62538 4.20004 9.69161 4.04015C9.75783 3.88027 9.86998 3.74361 10.0139 3.64746C10.1578 3.55132 10.3269 3.5 10.5 3.5C10.732 3.5003 10.9544 3.59258 11.1184 3.75661C11.2824 3.92064 11.3747 4.14303 11.375 4.375Z" fill="#56647E" fill-opacity="0.45"/>
</svg>
