<svg width="31" height="31" viewBox="0 0 31 31" fill="none" xmlns="http://www.w3.org/2000/svg">
<path fill-rule="evenodd" clip-rule="evenodd" d="M24.5413 21.9583C24.5413 19.818 22.8066 18.0833 20.6663 18.0833C17.7988 18.0833 13.2005 18.0833 10.333 18.0833C8.19272 18.0833 6.45801 19.818 6.45801 21.9583V25.8333C6.45801 26.5463 7.03667 27.125 7.74967 27.125H23.2497C23.9627 27.125 24.5413 26.5463 24.5413 25.8333V21.9583ZM21.958 24.5417V21.9583C21.958 21.2453 21.3793 20.6667 20.6663 20.6667C17.7988 20.6667 13.2005 20.6667 10.333 20.6667C9.62001 20.6667 9.04134 21.2453 9.04134 21.9583V24.5417H21.958ZM20.6663 7.75C20.6663 5.60971 18.9316 3.875 16.7913 3.875C15.9595 3.875 15.0398 3.875 14.208 3.875C12.0677 3.875 10.333 5.60971 10.333 7.75V11.625C10.333 13.7653 12.0677 15.5 14.208 15.5H16.7913C18.9316 15.5 20.6663 13.7653 20.6663 11.625V7.75ZM18.083 7.75C18.083 7.037 17.5043 6.45833 16.7913 6.45833C15.9595 6.45833 15.0398 6.45833 14.208 6.45833C13.495 6.45833 12.9163 7.037 12.9163 7.75V11.625C12.9163 12.338 13.495 12.9167 14.208 12.9167H16.7913C17.5043 12.9167 18.083 12.338 18.083 11.625V7.75Z" fill="#6572E1"/>
</svg>
