<svg width="27" height="27" viewBox="0 0 27 27" fill="none" xmlns="http://www.w3.org/2000/svg">
<path d="M7.875 11.25H5.625C5.32663 11.25 5.04048 11.1315 4.82951 10.9205C4.61853 10.7095 4.5 10.4234 4.5 10.125C4.5 9.82663 4.61853 9.54048 4.82951 9.3295C5.04048 9.11853 5.32663 9 5.625 9H7.875C8.17337 9 8.45952 9.11853 8.6705 9.3295C8.88147 9.54048 9 9.82663 9 10.125C9 10.4234 8.88147 10.7095 8.6705 10.9205C8.45952 11.1315 8.17337 11.25 7.875 11.25Z" fill="#6572E1"/>
<path d="M24.8288 6.60262C24.5127 6.43377 24.1567 6.3537 23.7988 6.37093C23.4409 6.38817 23.0943 6.50206 22.7959 6.7005L19.125 9.14737V7.89638C19.1241 7.14506 18.8253 6.42477 18.294 5.89351C17.7627 5.36225 17.0424 5.06339 16.2911 5.0625H3.95888C3.20756 5.06339 2.48727 5.36225 1.95601 5.89351C1.42475 6.42477 1.12589 7.14506 1.125 7.89638V19.1036C1.12589 19.8549 1.42475 20.5752 1.95601 21.1065C2.48727 21.6378 3.20756 21.9366 3.95888 21.9375H16.2911C17.0424 21.9366 17.7627 21.6378 18.294 21.1065C18.8253 20.5752 19.1241 19.8549 19.125 19.1036V17.8526L22.7959 20.2995C23.0942 20.4981 23.4408 20.6121 23.7988 20.6293C24.1568 20.6465 24.5128 20.5663 24.8288 20.3971C25.1448 20.228 25.409 19.9763 25.5932 19.6689C25.7775 19.3614 25.8748 19.0098 25.875 18.6514V8.34862C25.8748 7.99019 25.7773 7.63854 25.5931 7.33108C25.4089 7.02362 25.1447 6.77187 24.8288 6.60262ZM16.875 19.1036C16.875 19.2585 16.8135 19.407 16.704 19.5165C16.5945 19.626 16.446 19.6875 16.2911 19.6875H3.95888C3.80402 19.6875 3.65551 19.626 3.54601 19.5165C3.43652 19.407 3.375 19.2585 3.375 19.1036V7.89638C3.375 7.74152 3.43652 7.59301 3.54601 7.48351C3.65551 7.37402 3.80402 7.3125 3.95888 7.3125H16.2911C16.446 7.3125 16.5945 7.37402 16.704 7.48351C16.8135 7.59301 16.875 7.74152 16.875 7.89638V19.1036ZM23.625 18.1485L19.125 15.1481V11.8519L23.625 8.8515V18.1485Z" fill="#6572E1"/>
</svg>
