<svg width="19" height="19" viewBox="0 0 19 19" fill="none" xmlns="http://www.w3.org/2000/svg">
<g clip-path="url(#clip0_91_44)">
<path d="M3.41993 15.998C3.60993 15.998 3.64793 15.979 3.81893 15.941L7.23893 15.257C7.59993 15.162 7.96093 14.991 8.24593 14.706L16.5299 6.42199C17.8029 5.14899 17.8029 2.96399 16.5299 1.69099L15.8269 0.949989C14.5539 -0.323011 12.3499 -0.323011 11.0769 0.949989L2.79293 9.25299C2.52693 9.51899 2.33693 9.89899 2.24193 10.26L1.51993 13.718C1.42493 14.364 1.61493 14.991 2.07093 15.447C2.43193 15.808 2.96393 15.998 3.41993 15.998ZM4.06593 10.621L12.3499 2.31799C12.9009 1.76699 13.9079 1.76699 14.4399 2.31799L15.1619 3.03999C15.8079 3.68599 15.8079 4.59799 15.1619 5.22499L6.89693 13.528L3.38193 14.117L4.06593 10.621Z" fill="#56647E"/>
<path d="M16.4535 17.176H2.43153C1.88053 17.176 1.51953 17.537 1.51953 18.088C1.51953 18.639 1.97553 19 2.43153 19H16.3775C16.9285 19 17.3845 18.639 17.3845 18.088C17.3655 17.537 16.9095 17.176 16.4535 17.176Z" fill="#56647E"/>
</g>
<defs>
<clipPath id="clip0_91_44">
<rect width="19" height="19" fill="white"/>
</clipPath>
</defs>
</svg>
